<svg viewBox="0 0 1024 1024" xmlns="http://www.w3.org/2000/svg">
  <defs>
    <linearGradient id="bg" x1="0" y1="0" x2="0" y2="1">
      <stop offset="0" stop-color="#2e639b"/>
      <stop offset="1" stop-color="#1d4166"/>
    </linearGradient>
  </defs>
  <rect width="1024" height="1024" rx="180" fill="url(#bg)"/>
  <!-- painted heart: one open brushstroke, round caps = brush lift -->
  <path d="M 512 800
           C 400 720, 240 600, 218 452
           C 200 330, 300 240, 405 268
           C 470 286, 505 340, 512 400
           C 519 340, 554 286, 619 268
           C 724 240, 824 330, 806 452
           C 788 588, 660 700, 560 772"
        fill="none" stroke="#c9853f" stroke-width="88"
        stroke-linecap="round" stroke-linejoin="round"/>
  <!-- sparkle, carried over from the old mark -->
  <path d="M 812 148 C 822 214, 838 230, 904 240 C 838 250, 822 266, 812 332 C 802 266, 786 250, 720 240 C 786 230, 802 214, 812 148 Z"
        fill="#ffffff" fill-opacity="0.92"/>
</svg>
